<svg width="180" height="180" viewBox="0 0 180 180" fill="none" xmlns="http://www.w3.org/2000/svg">
<path d="M90 0C40.2944 0 0 40.2944 0 90V90.135C0 139.841 40.1594 180 89.865 180H90C139.706 180 180 139.841 180 90.135V90C180 40.2944 139.841 0 90.135 0H90Z" fill="#F5F5F5"/>
<g clip-path="url(#clip0_1035_23755)">
<path d="M102.5 82.5V67.6562C102.5 64.2045 101.28 61.2582 98.8388 58.8174C96.3981 56.3766 93.4518 55.1562 90 55.1562C86.5482 55.1562 83.6019 56.3766 81.1612 58.8174C78.7204 61.2582 77.5 64.2045 77.5 67.6562V82.5" stroke="#2E8B57" stroke-width="5" stroke-linecap="round" stroke-linejoin="round"/>
<path d="M65 90C65 85.8579 68.3579 82.5 72.5 82.5H107.5C111.642 82.5 115 85.8579 115 90V117.5C115 121.642 111.642 125 107.5 125H72.5C68.3579 125 65 121.642 65 117.5V90Z" stroke="#2E8B57" stroke-width="5" stroke-linejoin="round"/>
</g>
<defs>
<clipPath id="clip0_1035_23755">
<rect width="80" height="80" fill="white" transform="translate(50 50)"/>
</clipPath>
</defs>
</svg>
